# xmcd
#
# Track frame offsets:
#	150
#	12421
#	29440
#	45738
#	64086
#	78425
#	92611
#	107066
#	128332
#	141083
#	154586
#	171482
#	187120
#	205656
#
# Disc length: 2992 seconds
# Revision: 2
# Processed by: cddbd v1.5.2PL0 Copyright (c) Steve Scherf et al.
# Submitted via: dBpowerAMP V12.0
#
DISCID=b70bae0e
DTITLE=Mikki Daniel - Cowgirl Swing
DYEAR=2014
DGENRE=Country
TTITLE0=She Should Be Me
TTITLE1=Swingtime Rocking Chair
TTITLE2=On The Street Where You Live
TTITLE3=Leave The Cards Alone
TTITLE4=I'm Gonna Lock My Heart (And Throw Away the Key)
TTITLE5=She Could Ride
TTITLE6=Cold Blue Eyes
TTITLE7=Polka Dots And Moonbeams
TTITLE8=I Met Jesus In Texas
TTITLE9=Prince Charming
TTITLE10=It's a Sin to Tell a Lie (Duet With Dave Alexander)
TTITLE11=She's Gone
TTITLE12=Girl From Kentucky
TTITLE13=Heaven In The West
EXTD=
EXTT0=
EXTT1=
EXTT2=
EXTT3=
EXTT4=
EXTT5=
EXTT6=
EXTT7=
EXTT8=
EXTT9=
EXTT10=
EXTT11=
EXTT12=
EXTT13=
PLAYORDER=
